<?xml version="1.0" encoding="UTF-8" standalone="no"?>
<!DOCTYPE svg PUBLIC "-//W3C//DTD SVG 1.1//EN" "http://www.w3.org/Graphics/SVG/1.1/DTD/svg11.dtd">
<svg width="100%" height="100%" viewBox="0 0 820 726" version="1.1" xmlns="http://www.w3.org/2000/svg" xmlns:xlink="http://www.w3.org/1999/xlink" xml:space="preserve" xmlns:serif="http://www.serif.com/" style="fill-rule:evenodd;clip-rule:evenodd;stroke-miterlimit:10;">
    <circle cx="426.16" cy="350.304" r="350.304" style="fill:rgb(209,213,219);"/>
    <g transform="matrix(0.862112,0,0,0.862112,-152.312,282.369)">
        <circle cx="767.027" cy="76.07" r="47.244" style="fill:rgb(255,184,184);"/>
        <g transform="matrix(1,0,0,1,-116.155,-202)">
            <path d="M847.92,301.692C847.92,301.692 856.821,368.791 843.128,376.323C829.434,383.854 924.606,384.539 924.606,384.539C924.606,384.539 903.38,326.34 912.966,308.538L847.92,301.692Z" style="fill:rgb(255,184,184);fill-rule:nonzero;"/>
        </g>
        <g transform="matrix(1,0,0,1,-116.155,-202)">
            <path d="M994.101,384.878L986.186,420.92L969.45,497.173L968.949,501.349L963.173,549.693L959.331,581.81L956.755,603.383C941.092,611.433 929.74,616.99 929.74,616.99C929.74,616.99 928.763,612.095 927.189,605.831C916.197,609.127 895.857,614.594 878.62,615.686C884.896,622.682 887.781,629.255 883.869,634.105C872.06,648.728 823.311,618.095 806.26,606.673C805.863,609.407 805.713,612.173 805.81,614.934L792.762,604.899L794.054,581.81L796.231,542.742L798.968,493.748C798.105,491.651 797.382,489.498 796.803,487.305C792.807,473.094 787.957,444.716 784.237,420.92C781.243,401.768 778.994,385.585 778.519,382.141C778.455,381.692 778.423,381.46 778.423,381.46L850.654,349.543C855.787,361.448 879.757,365.026 879.757,365.026C899.615,363.658 915.182,353.186 915.182,353.186L994.101,384.878Z" style="fill:rgb(31,41,55);fill-rule:nonzero;"/>
        </g>
        <g transform="matrix(1,0,0,1,-116.155,-202)">
            <path d="M935.22,603.3C935.22,603.3 932.162,604.347 927.189,605.831C916.197,609.127 895.857,614.594 878.62,615.686C863.779,616.637 851.238,614.35 848.945,604.668C847.962,600.505 849.356,597.081 852.395,594.267C861.466,585.857 885.16,582.844 903.952,581.81C909.258,581.52 914.167,581.386 918.253,581.334C925.191,581.244 929.74,581.386 929.74,581.386L929.849,581.81L935.22,603.3Z" style="fill:rgb(255,184,184);fill-rule:nonzero;"/>
        </g>
        <g transform="matrix(1,0,0,1,-116.155,-202)">
            <path d="M843.88,233.382L835.046,229.845C835.046,229.845 853.516,209.511 879.213,211.279L871.986,203.323C871.986,203.323 889.653,196.25 905.713,214.816C914.156,224.575 923.924,236.047 930.014,248.971L939.474,248.971L935.526,257.664L949.345,266.358L935.161,264.796C936.006,269.557 936.136,274.417 935.546,279.216C934.938,284.015 932.486,288.394 928.714,291.421C924.941,294.449 917.759,268.745 917.759,265.209L917.759,274.05C917.759,274.05 908.925,266.093 908.925,260.789L904.107,266.977L901.698,257.252L871.986,266.977L876.804,259.021L858.334,261.673L865.562,251.948C865.562,251.948 844.683,263.441 843.88,273.166C843.077,282.891 836.966,292.106 836.966,292.106C836.966,292.106 820.592,246.643 843.88,233.382Z" style="fill:rgb(55,65,81);fill-rule:nonzero;"/>
        </g>
        <g transform="matrix(1,0,0,1,-116.155,-202)">
            <path d="M1045.45,550.573C1040.64,555.79 1028.72,563.647 1014.26,572.153C1008.88,575.314 1003.16,578.572 997.319,581.81C983.385,589.538 968.794,597.196 956.755,603.383C941.092,611.433 929.74,616.99 929.74,616.99C929.74,616.99 928.763,612.095 927.189,605.831C925.082,597.447 921.908,586.609 918.6,581.81C918.484,581.643 918.368,581.488 918.253,581.334C917.289,580.069 916.319,579.33 915.362,579.33L963.173,549.693L983.834,536.883L968.949,501.349L950.279,456.775L961.548,420.92L972.874,384.878L994.101,384.878C994.101,384.878 1001.13,400.22 1010.12,421.614C1011.46,424.813 1012.85,428.148 1014.26,431.591C1032.75,476.563 1055.8,539.363 1045.45,550.573Z" style="fill:rgb(31,41,55);fill-rule:nonzero;"/>
        </g>
        <g transform="matrix(1,0,0,1,-116.155,-202)">
            <path d="M883.869,634.105C872.06,648.728 823.311,618.095 806.26,606.673C802.547,604.186 800.337,602.612 800.337,602.612L815.936,581.81L820.876,575.224C820.876,575.224 825.296,577.569 831.83,581.386C832.068,581.527 832.305,581.668 832.549,581.81C838.184,585.118 845.257,589.442 852.395,594.267C862.244,600.929 872.202,608.529 878.62,615.686C884.897,622.682 887.781,629.255 883.869,634.105Z" style="fill:rgb(255,184,184);fill-rule:nonzero;"/>
        </g>
        <g transform="matrix(1,0,0,1,-116.155,-202)">
            <path d="M831.83,581.386C830.086,581.379 828.345,581.521 826.626,581.81C811.856,584.347 807.5,597.717 806.26,606.673C805.863,609.408 805.713,612.173 805.81,614.935L792.762,604.899L788.008,601.244C776.566,597.254 766.37,590.168 757.53,581.81C749.861,574.43 742.982,566.272 737.004,557.467C731.049,548.789 725.741,539.684 721.122,530.227C718.515,524.888 718.413,518.656 720.846,513.234L737.004,477.225L760.62,424.595C760.794,423.342 760.984,422.117 761.192,420.92C765.876,394.065 778.423,382.141 778.423,382.141L788.008,382.141L794.42,420.92L802.386,469.098L796.803,487.305L783.903,529.353L796.232,542.742L831.83,581.386Z" style="fill:rgb(31,41,55);fill-rule:nonzero;"/>
        </g>
    </g>
    <g transform="matrix(1,0,0,1,-190,-87.4132)">
        <path d="M389.416,685.212C366.851,719.816 373.034,763.829 373.034,763.829C373.034,763.829 415.802,751.736 438.367,717.132C460.932,682.528 454.749,638.515 454.749,638.515C454.749,638.515 411.981,650.608 389.416,685.212Z" style="fill:rgb(45,47,72);fill-rule:nonzero;"/>
    </g>
    <g transform="matrix(1,0,0,1,-190,-87.4132)">
        <path d="M372.914,763.426C372.914,763.426 372.365,763.339 371.354,763.134C370.547,762.971 369.437,762.737 368.081,762.415C355.961,759.558 323.738,749.898 302.671,724.501C276.304,692.698 277.414,648.268 277.414,648.268C277.414,648.268 317.731,654.819 344.297,683.378C345.448,684.605 346.568,685.877 347.657,687.194C370.6,714.864 372.739,752.095 372.908,761.299C372.932,762.678 372.914,763.426 372.914,763.426Z" style="fill:rgb(37,99,235);fill-rule:nonzero;"/>
    </g>
    <g transform="matrix(1,0,0,1,-190,-87.4132)">
        <path d="M356.652,685.212C379.217,719.816 373.034,763.829 373.034,763.829C373.034,763.829 330.266,751.736 307.701,717.132C285.136,682.528 291.319,638.515 291.319,638.515C291.319,638.515 334.087,650.608 356.652,685.212Z" style="fill:none;fill-rule:nonzero;stroke:rgb(209,213,219);stroke-width:2px;"/>
    </g>
    <g transform="matrix(1,0,0,1,-190,-87.4132)">
        <path d="M372.908,761.299C372.312,762.018 371.786,762.632 371.354,763.134C370.395,764.227 369.852,764.8 369.852,764.8C369.852,764.8 369.192,763.97 368.081,762.415C361.986,753.918 342.38,723.706 343.894,688.806C343.975,686.977 344.11,685.168 344.297,683.378C345.448,684.605 346.568,685.877 347.657,687.194C370.6,714.864 372.739,752.095 372.908,761.299Z" style="fill-opacity:0.1;fill-rule:nonzero;"/>
    </g>
    <g transform="matrix(1,0,0,1,-190,-87.4132)">
        <path d="M406.366,691.33C404.583,732.603 373.945,764.8 373.945,764.8C373.945,764.8 346.199,730.08 347.982,688.807C349.766,647.534 380.404,615.337 380.404,615.337C380.404,615.337 408.15,650.057 406.366,691.33Z" style="fill:rgb(37,99,235);fill-rule:nonzero;"/>
    </g>
    <path d="M183.945,676.218L190.681,529.608" style="fill:none;fill-rule:nonzero;stroke:rgb(243,244,246);stroke-width:2px;"/>
    <ellipse cx="410" cy="691.704" rx="410" ry="33.469" style="fill:rgb(31,41,55);"/>
    <g transform="matrix(1,0,0,1,-190,-87.4132)">
        <path d="M614.799,685.604C614.799,685.604 582.284,765.535 621.573,777.728C660.861,789.921 769.243,787.212 793.629,770.954C818.015,754.697 824.788,733.021 820.724,726.247C816.66,719.473 789.564,700.506 770.598,699.151C751.631,697.797 614.799,685.604 614.799,685.604Z" style="fill:rgb(45,47,72);fill-rule:nonzero;"/>
    </g>
    <g transform="matrix(1,0,0,1,-190,-87.4132)">
        <path d="M614.799,685.604C614.799,685.604 582.284,765.535 621.573,777.728C660.861,789.921 769.243,787.212 793.629,770.954C818.015,754.697 824.788,733.021 820.724,726.247C816.66,719.473 789.564,700.506 770.598,699.151C751.631,697.797 614.799,685.604 614.799,685.604Z" style="fill-opacity:0.05;fill-rule:nonzero;"/>
    </g>
    <g transform="matrix(1,0,0,1,-190,-87.4132)">
        <path d="M768.277,690.57C768.277,690.57 883.044,649.025 881.689,699.151C880.334,749.278 808.531,762.826 808.531,762.826L786.855,765.535L667.635,769.599C667.635,769.599 671.699,747.923 662.216,745.214C662.216,745.214 693.376,737.085 694.73,735.73C696.085,734.375 773.307,707.28 778.726,705.925C784.145,704.57 800.403,693.732 812.596,695.087C812.596,695.087 826.143,684.249 841.046,686.958L799.048,689.668L768.277,690.57Z" style="fill:rgb(47,46,65);fill-rule:nonzero;"/>
    </g>
    <g transform="matrix(1,0,0,1,-190,-87.4132)">
        <path d="M768.277,690.57C768.277,690.57 883.044,649.025 881.689,699.151C880.334,749.278 808.531,762.826 808.531,762.826L786.855,765.535L667.635,769.599C667.635,769.599 671.699,747.923 662.216,745.214C662.216,745.214 693.376,737.085 694.73,735.73C696.085,734.375 773.307,707.28 778.726,705.925C784.145,704.57 800.403,693.732 812.596,695.087C812.596,695.087 826.143,684.249 841.046,686.958L799.048,689.668L768.277,690.57Z" style="fill:rgb(30,58,138);fill-opacity:0.1;fill-rule:nonzero;"/>
    </g>
    <path d="M558,609.885L572.469,642.898L660.529,611.738L667.303,594.126L644.272,590.062L597.97,598.19L577.888,603.61L558,609.885Z" style="fill:rgb(45,47,72);fill-rule:nonzero;"/>
    <path d="M558,609.885L572.469,642.898L660.529,611.738L667.303,594.126L644.272,590.062L597.97,598.19L577.888,603.61L558,609.885Z" style="fill:rgb(45,47,72);fill-opacity:0.1;fill-rule:nonzero;"/>
    <g transform="matrix(1,0,0,1,-190,-87.4132)">
        <path d="M560.608,737.085C560.608,737.085 586.349,769.6 616.154,777.728C645.959,785.857 662.216,775.019 662.216,775.019L652.732,737.085L648.668,712.699L631.056,700.506L595.832,684.249L553.834,670.701C553.834,670.701 536.222,667.992 536.222,670.701C536.222,673.411 552.479,714.054 552.479,714.054L560.608,737.085Z" style="fill:rgb(45,47,72);fill-rule:nonzero;"/>
    </g>
    <g transform="matrix(1,0,0,1,-190,-87.4132)">
        <path d="M591.768,754.697C591.768,754.697 597.187,793.985 603.961,796.695C610.735,799.404 631.056,793.985 636.475,791.276C641.894,788.566 660.314,776.065 660.314,776.065C660.314,776.065 595.832,751.987 591.768,754.697Z" style="fill:rgb(243,244,246);fill-rule:nonzero;"/>
    </g>
    <path d="M525.052,671.348L550.793,675.412L548.083,706.572L512.18,697.851L525.052,671.348Z" style="fill:rgb(255,185,185);fill-rule:nonzero;"/>
    <g transform="matrix(1,0,0,1,-190,-87.4132)">
        <path d="M731.18,767.433C731.18,767.433 719.116,781.792 731.309,789.921L739.438,796.695C739.438,796.695 766.533,802.114 769.243,804.824C771.952,807.533 782.791,800.759 782.791,800.759C782.791,800.759 784.145,760.116 782.791,757.407C781.436,754.697 765.179,751.987 763.824,754.697C762.469,757.407 746.212,761.471 736.728,758.761L731.18,767.433Z" style="fill:rgb(243,244,246);fill-rule:nonzero;"/>
    </g>
    <g transform="matrix(1,0,0,1,-190,-87.4132)">
        <path d="M622.928,695.087C622.928,695.087 528.094,639.541 513.191,659.863C498.288,680.185 482.031,708.635 525.384,730.311C568.737,751.987 704.214,796.695 704.214,796.695C704.214,796.695 724.535,765.535 724.535,757.407C724.535,757.407 652.732,724.892 640.539,722.182C628.347,719.473 579.575,688.313 572.801,685.604C566.027,682.894 556.544,674.765 556.544,674.765L622.928,695.087Z" style="fill:rgb(45,47,72);fill-rule:nonzero;"/>
    </g>
    <g transform="matrix(1,0,0,1,-190,-87.4132)">
        <path d="M598.542,620.37L598.542,691.731C598.542,701.046 606.129,708.747 615.444,708.885L764.682,711.096C773.939,711.233 781.724,703.853 782.08,694.601L784.825,623.232C784.833,623.012 784.837,622.792 784.837,622.572C784.837,613.254 777.246,605.553 767.929,605.418L615.947,603.215C615.864,603.214 615.781,603.213 615.698,603.213C606.286,603.213 598.542,610.958 598.542,620.37Z" style="fill:rgb(229,231,235);fill-rule:nonzero;"/>
    </g>
    <circle cx="499.989" cy="570.418" r="10.838" style="fill:rgb(243,244,246);"/>
</svg>
